<svg width="24" height="24" viewBox="0 0 24 24" fill="none" xmlns="http://www.w3.org/2000/svg">
<path d="M12 1.06832C11.0375 3.45963 10.4188 4.96273 9.31875 7.28571C10.0063 8.03727 10.8313 8.85714 12.1375 9.74534C10.6938 9.19876 9.73125 8.58385 9.04375 7.96894C7.6 10.9068 5.4 15.0062 1 23C4.4375 20.9503 7.1875 19.7205 9.73125 19.2422C9.59375 18.764 9.525 18.2857 9.525 17.7391V17.6708C9.59375 15.4161 10.7625 13.7081 12.1375 13.8447C13.5125 13.913 14.6125 15.8261 14.5438 18.0807L14.4063 19.2422C16.8813 19.7205 19.5625 21.0186 23 22.9317L21.1438 19.5155C20.25 18.8323 19.2875 17.9441 17.3625 16.9193C18.6688 17.2609 19.6313 17.6708 20.3875 18.0807C14.475 7.21739 13.9938 5.78261 12 1V1.06832Z" fill="white"/>
</svg>
